<?xml version="1.0" encoding="UTF-8" standalone="no"?>
<!-- Created with Inkscape (http://www.inkscape.org/) -->

<svg
   width="200.81874mm"
   height="143.40416mm"
   viewBox="0 0 200.81874 143.40416"
   version="1.1"
   id="svg1"
   xml:space="preserve"
   xmlns="http://www.w3.org/2000/svg"
   xmlns:svg="http://www.w3.org/2000/svg"><defs
     id="defs1" /><g
     id="layer1"
     transform="translate(-6.4120694,-85.329723)"><path
       style="fill:#000000;stroke-width:1;stroke-dasharray:none"
       d="m 95.554,222.611 c -24.462,-16.78 -47.343,-38.038 -57.937,-53.829 -12.54,-18.691 -11.874,-40.061 1.681,-53.909 16.478,-16.835 45.5,-14.432 58.263,4.823 1.892,2.854 1.612,2.781 2.91,0.758 6.378,-9.936 22.755,-19.509 25.545,-14.932 1.265,2.075 0.638,2.864 -3.332,4.187 -9.041,3.014 -15.81,8.803 -20.099,17.187 -1.523,2.978 -1.939,3.414 -3.259,3.414 -1.091,0 -1.677,-0.604 -2.956,-3.043 -15.214,-29.02 -57.006,-22.898 -62.317,9.128 -1.153,6.95 -0.036,14.005 3.518,22.225 3.939,9.113 17.272,24.48 33.663,38.802 8.105,7.082 17.011,14.083 24.439,19.213 l 3.669,2.534 2.548,-1.747 c 11.538,-7.908 21.042,-16.183 33.386,-29.069 7.859,-8.204 14.161,-12.254 23.666,-15.211 13.106,-4.078 20.555,-8.523 25.173,-15.025 1.305,-1.837 2.786,-1.986 4.028,-0.406 3.373,4.288 -10.639,14.774 -26.291,19.676 -10.615,3.325 -15.386,6.601 -27.038,18.571 -10.283,10.563 -20.421,19.174 -30.493,25.9 -5.098,3.405 -4.928,3.39 -8.77,0.754 z m 22.682,-25.126 c -2.563,-0.697 -2.275,-2.882 1.279,-9.696 6.773,-12.984 17.25,-21.228 34.059,-26.801 14.908,-4.943 22.682,-10.773 27.749,-20.81 1.797,-3.559 2.433,-4.091 4.072,-3.406 2.439,1.019 1.744,4.048 -2.332,10.155 -5.494,8.232 -14.308,14.536 -24.782,17.725 -19.243,5.86 -27.969,12.751 -35.719,28.209 -2.41,4.807 -2.663,5.077 -4.328,4.624 z m -11.577,-3.533 c -1.212,-0.678 -1.466,-1.777 -0.912,-3.953 4.516,-17.729 18.568,-32.547 36.395,-38.38 12.885,-4.216 18.078,-7.52 23.86,-15.175 2.316,-3.067 5.774,-10.492 5.774,-12.398 0,-0.78 1.253,-1.674 2.346,-1.674 6.67,0 -2.092,17.879 -12.658,25.828 -3.157,2.375 -8.661,5.018 -14.823,7.118 -18.894,6.439 -30.308,17.455 -35.724,34.477 -1.351,4.247 -2.351,5.223 -4.257,4.157 z m -32.732,-9.935 c -2.575,-0.544 -4.806,-1.9 -7.86,-4.777 -2.225,-2.096 -3.694,-2.768 -7.432,-3.397 -11.209,-1.886 -16.424,-12.373 -9.499,-19.102 1.006,-0.978 1.142,-1.297 0.55,-1.297 -0.708,0 -3.462,-2.83 -4.179,-4.295 -4.854,-9.913 4.719,-21.686 13.774,-16.939 l 1.627,0.853 0.443,-0.724 c 2.115,-3.458 3.519,-4.856 6.118,-6.096 5.978,-2.853 13.111,0.816 14.208,7.308 l 0.176,1.042 1.313,-0.634 c 6.115,-2.95 12.332,-0.122 13.991,6.364 0.784,3.067 0.723,4.316 -0.406,8.254 -0.138,0.482 -0.022,0.58 0.857,0.721 12.782,2.044 5.281,23.466 -7.895,22.546 l -2.291,-0.16 -0.175,1.038 c -0.983,5.817 -7.675,10.486 -13.321,9.294 z m 5.018,-5.844 c 2.835,-1.427 4.254,-5.108 3.309,-8.582 -4.68,-17.198 -10.235,-20.029 -25.177,-12.833 -8.838,4.257 -7.581,12.208 2.197,13.903 4.69,0.813 6.337,1.611 10.626,5.149 3.979,3.283 6.111,3.839 9.046,2.362 z m 14.866,-9.922 c 4.019,-1.369 6.472,-7.414 4.327,-10.662 -3.026,-4.582 -11.704,0.014 -11.684,6.189 0.013,4.011 3.137,5.91 7.357,4.472 z m -7.429,-13.449 c 6.454,-2.303 8.375,-13.143 2.604,-14.697 -6.408,-1.726 -12.928,9.245 -8.146,13.708 1.343,1.253 3.648,1.665 5.541,0.989 z m -29.763,-3.777 c 2.982,-1.405 4.455,-6.623 2.783,-9.862 -3.582,-6.939 -12.55,0.007 -9.524,7.378 1.137,2.77 3.941,3.804 6.742,2.485 z m 15.584,-3.275 c 2.563,-1.241 4.519,-4.493 4.784,-7.953 0.792,-10.34 -10.951,-9.551 -12.36,0.83 -0.786,5.798 2.986,9.345 7.576,7.123 z m 62.486,-4.357 c -8.329,-1.532 -13.751,-8.385 -13.385,-16.915 0.196,-4.559 1.568,-7.581 9.858,-21.703 1.623,-2.765 3.284,-5.644 3.69,-6.397 1.51,-2.798 3.456,-2.657 5.327,0.386 1.462,2.378 4.407,7.101 7.141,11.453 5.468,8.704 7.594,14.488 6.969,18.966 -1.331,9.537 -10.169,15.945 -19.6,14.21 z m 7.264,-5.403 c 10.396,-3.959 9.439,-13.155 -3.369,-32.355 -1.185,-1.777 -1.287,-1.75 -2.608,0.694 -0.482,0.892 -1.8,3.216 -2.928,5.163 -5.042,8.706 -6.804,12.855 -6.811,16.038 -0.017,7.927 8.129,13.349 15.716,10.46 z"
       id="path7" /></g></svg>
