<?xml version="1.0" encoding="UTF-8" standalone="no"?>
<!-- Created with Inkscape (http://www.inkscape.org/) -->

<svg
   width="200.81874mm"
   height="143.40416mm"
   viewBox="0 0 200.81874 143.40416"
   version="1.1"
   id="svg1"
   xml:space="preserve"
   xmlns="http://www.w3.org/2000/svg"
   xmlns:svg="http://www.w3.org/2000/svg"><defs
     id="defs1" /><g
     id="layer1"
     transform="translate(-6.4120694,-85.329723)"><path
       style="fill:#000000"
       d="m 95.553871,222.6105 c -24.4624,-16.78017 -47.342598,-38.03794 -57.93711,-53.8288 -12.540243,-18.69093 -11.873934,-40.06095 1.680865,-53.90905 16.478286,-16.834853 45.500204,-14.43247 58.263405,4.82294 1.891601,2.85379 1.611786,2.78092 2.910419,0.75788 6.3782,-9.93616 22.75489,-19.50901 25.54546,-14.93239 1.26537,2.07526 0.63818,2.86351 -3.33155,4.18708 -9.0408,3.01434 -15.8102,8.80303 -20.09864,17.18685 -1.52331,2.97807 -1.93937,3.41387 -3.259192,3.41387 -1.090578,0 -1.676957,-0.60364 -2.955676,-3.0427 -15.214067,-29.019705 -57.005971,-22.89809 -62.317215,9.12812 -1.152577,6.94991 -0.03591,14.00521 3.517616,22.225 3.939491,9.11256 17.271896,24.48026 33.662735,38.80161 8.104826,7.08152 17.011121,14.08308 24.439192,19.21252 l 3.669399,2.5339 2.548311,-1.74662 c 11.53779,-7.90804 21.04202,-16.18313 33.38633,-29.06861 7.85949,-8.20405 14.16075,-12.2542 23.66615,-15.21146 13.10632,-4.07755 20.5545,-8.5232 25.1733,-15.02536 1.30457,-1.83653 2.78578,-1.98584 4.02841,-0.4061 3.37286,4.2879 -10.63872,14.77405 -26.2913,19.67617 -10.61538,3.32456 -15.386,6.60117 -27.03799,18.57056 -10.2832,10.56332 -20.42121,19.17441 -30.49271,25.90009 -5.098485,3.40473 -4.928038,3.39007 -8.770209,0.7545 z m 22.682379,-25.12601 c -2.5634,-0.69665 -2.27508,-2.88221 1.27902,-9.69558 6.77274,-12.98364 17.24954,-21.22791 34.05897,-26.80125 14.90827,-4.94299 22.68174,-10.7725 27.74948,-20.81 1.79685,-3.55896 2.43318,-4.09119 4.07247,-3.40626 2.43921,1.01917 1.74362,4.04843 -2.33178,10.15467 -5.49389,8.2316 -14.30773,14.53581 -24.7815,17.72528 -19.24344,5.86001 -27.96947,12.75136 -35.71875,28.20877 -2.40983,4.80686 -2.6626,5.07694 -4.32791,4.62437 z m -11.57671,-3.53253 c -1.21249,-0.67774 -1.46593,-1.77669 -0.91159,-3.95284 4.51614,-17.72875 18.56763,-32.54661 36.39537,-38.38039 12.88453,-4.2162 18.07815,-7.51952 23.8596,-15.1755 2.31575,-3.0666 5.77374,-10.49187 5.77374,-12.39785 0,-0.77961 1.25326,-1.674 2.3457,-1.674 6.67043,0 -2.09162,17.87867 -12.65797,25.8282 -3.15711,2.37523 -8.66122,5.01844 -14.82315,7.11845 -18.89376,6.43908 -30.30817,17.45488 -35.72423,34.47668 -1.3513,4.24693 -2.35087,5.22297 -4.25747,4.15725 z m -32.732074,-9.93469 c -2.575443,-0.54395 -4.8064,-1.89983 -7.859681,-4.77677 -2.225003,-2.09649 -3.694441,-2.76815 -7.432303,-3.39718 -11.20888,-1.88632 -16.424033,-12.37328 -9.499325,-19.10186 1.006342,-0.97784 1.141827,-1.29716 0.55037,-1.29716 -0.707902,0 -3.461845,-2.83027 -4.178931,-4.29474 -4.853991,-9.91315 4.718932,-21.68563 13.774141,-16.93901 l 1.627398,0.85306 0.442799,-0.72372 c 2.115454,-3.45752 3.519119,-4.85624 6.117951,-6.09637 5.978318,-2.85278 13.111055,0.81606 14.207871,7.30805 l 0.17611,1.04239 1.313233,-0.63352 c 6.11543,-2.95018 12.332238,-0.12239 13.991193,6.36406 0.784496,3.06735 0.723117,4.31647 -0.40558,8.25396 -0.138308,0.48249 -0.02221,0.58015 0.856806,0.72071 12.782282,2.04397 5.280732,23.46552 -7.895292,22.54594 l -2.290555,-0.15987 -0.175379,1.03806 c -0.982759,5.8169 -7.675343,10.48633 -13.320826,9.29397 z m 5.018157,-5.84445 c 2.834919,-1.42744 4.254051,-5.10821 3.308734,-8.5818 -4.680394,-17.19817 -10.234752,-20.0292 -25.17705,-12.83262 -8.837835,4.25652 -7.581445,12.20836 2.19669,13.90311 4.689546,0.8128 6.336795,1.61108 10.62582,5.14943 3.97916,3.28271 6.111361,3.83944 9.045806,2.36188 z m 14.866123,-9.92179 c 4.019068,-1.36943 6.472164,-7.41381 4.32706,-10.6618 -3.02638,-4.58238 -11.704132,0.0144 -11.684339,6.18944 0.01286,4.01123 3.137014,5.91035 7.357279,4.47236 z m -7.428824,-13.44881 c 6.453696,-2.3031 8.374536,-13.14322 2.604266,-14.69699 -6.408444,-1.72561 -12.927849,9.2455 -8.145742,13.70798 1.343148,1.25337 3.647993,1.66473 5.541476,0.98901 z m -29.763088,-3.77707 c 2.982249,-1.40501 4.454548,-6.62309 2.782628,-9.86211 -3.58192,-6.93927 -12.549571,0.007 -9.52445,7.37753 1.137075,2.77043 3.94142,3.80392 6.741822,2.48458 z m 15.584113,-3.27454 c 2.562648,-1.24056 4.519013,-4.49292 4.784175,-7.95346 0.792334,-10.34045 -10.951378,-9.55136 -12.359725,0.83048 -0.786485,5.79769 2.985955,9.34476 7.57555,7.12298 z m 62.485753,-4.35653 c -8.32859,-1.53232 -13.75143,-8.38502 -13.38529,-16.91463 0.19572,-4.55924 1.56818,-7.58084 9.85783,-21.70286 1.62299,-2.76489 3.28369,-5.643628 3.69043,-6.397187 1.51018,-2.797858 3.45575,-2.656987 5.32658,0.385679 1.46202,2.377788 4.40698,7.100788 7.14135,11.452978 5.46824,8.70359 7.59381,14.48834 6.96907,18.96634 -1.33059,9.53739 -10.1687,15.94488 -19.59997,14.20968 z m 7.26374,-5.40319 c 10.39608,-3.95943 9.43872,-13.15459 -3.36872,-32.35524 -1.18546,-1.77723 -1.28681,-1.75026 -2.6081,0.69396 -0.48224,0.89209 -1.79972,3.21557 -2.92774,5.16328 -5.04208,8.70598 -6.80409,12.855 -6.811,16.03787 -0.0172,7.92717 8.12931,13.34941 15.71556,10.46013 z"
       id="path7" /></g></svg>
