<?xml version="1.0" encoding="UTF-8" standalone="no"?>
<!-- Created with Inkscape (http://www.inkscape.org/) -->

<svg
   width="148.6154mm"
   height="165.76344mm"
   viewBox="0 0 148.6154 165.76344"
   version="1.1"
   id="svg1"
   xml:space="preserve"
   xmlns="http://www.w3.org/2000/svg"
   xmlns:svg="http://www.w3.org/2000/svg"><defs
     id="defs1" /><g
     id="layer1"
     transform="translate(-30.82219,-66.688349)"><path
       style="fill:#000000;fill-opacity:1;stroke:none;stroke-width:1.23329;stroke-dasharray:none;stroke-opacity:1"
       d="M 69.927004,232.12727 C 68.984194,231.57821 68.118633,229.3878 67.524448,226.0473 66.50665,220.32527 66.450923,220.24566 60.32107,215.75892 51.854233,209.56163 43.236451,199.21237 38.553388,189.61767 33.804284,179.8877 30.601835,167.63875 30.83404,160.0921 l 0.08879,-2.88637 1.685929,-0.20401 c 0.927258,-0.11222 14.287583,-0.20733 29.689596,-0.21137 15.40202,-0.003 28.048423,-0.052 28.103108,-0.10678 0.05476,-0.0547 -0.494436,-0.81459 -1.220286,-1.68865 -0.725843,-0.87407 -1.677298,-2.19936 -2.11431,-2.94508 l -0.794597,-1.35587 -6.064152,-0.16657 c -6.852862,-0.18823 -10.339579,-0.77855 -14.821022,-2.50929 -14.164627,-5.47039 -23.670772,-20.91148 -24.952369,-40.5308 -0.167783,-2.56842 -0.132024,-2.84678 0.402379,-3.1328 1.423628,-0.76189 12.283896,1.22841 19.206334,3.51985 11.661041,3.85999 20.581369,10.90173 25.409092,20.05805 1.80796,3.42901 2.713483,5.86211 3.907778,10.5 1.640627,6.37126 3.919308,10.8509 7.408442,14.56425 1.702767,1.8122 4.378748,4.05581 4.837418,4.05581 0.16346,0 0.27901,-5.63481 0.27901,-13.60661 v -13.60659 l -0.99624,-0.19094 c -1.765054,-0.33828 -5.643058,-2.20355 -8.4137,-4.04686 -12.18754,-8.10845 -18.301178,-22.13614 -16.942074,-38.873447 0.520541,-6.41043 2.094368,-12.70445 4.23918,-16.95329 1.448769,-2.87 1.881058,-3.27532 3.224544,-3.02328 1.40188,0.26301 10.255016,4.74288 13.286572,6.72331 7.559378,4.93831 13.056368,10.88657 16.473958,17.8264 2.82944,5.74548 3.86204,11.214277 3.22549,17.082667 -0.70285,6.47955 -1.95527,10.28724 -5.07284,15.42295 l -1.36157,2.24297 6.4e-4,15.73126 6.4e-4,15.73125 1.22315,-1.3794 c 2.03001,-2.28931 3.58295,-4.77424 4.64782,-7.43713 l 1.0098,-2.52519 0.0366,-8.27638 c 0.0398,-9.01132 0.40526,-11.84965 2.16006,-16.77767 4.91699,-13.80843 18.54486,-25.514637 34.29804,-29.461657 3.73289,-0.93529 9.00318,-1.824 9.98205,-1.68325 1.22098,0.17556 1.56328,2.04618 1.72982,9.45271 0.11307,5.028837 0.0301,7.488647 -0.35007,10.381117 -1.927,14.66033 -7.67168,25.3754 -17.27631,32.224 -6.1375,4.37633 -12.38854,6.43882 -21.08136,6.95562 l -3.08358,0.18333 -0.98104,2.1795 c -0.53957,1.19871 -1.53141,2.90646 -2.20411,3.795 -0.67269,0.88853 -1.22311,1.64719 -1.22316,1.68592 -3e-5,0.0387 13.13873,0.0265 29.19727,-0.0272 16.05853,-0.0537 29.78356,-0.0111 30.50008,0.0954 l 1.30277,0.1929 v 2.11641 c 0,6.91451 -2.8773,18.85473 -6.579,27.30157 -2.54072,5.79761 -6.56392,12.37325 -10.5443,17.23388 -3.10664,3.79368 -9.14903,9.38253 -13.39066,12.38554 -5.91619,4.18859 -6.12687,4.48027 -7.21138,9.98318 -0.8293,4.20795 -1.11261,5.00618 -2.03419,5.73108 -0.77702,0.61121 -1.154,0.61775 -34.99919,0.60855 -22.754663,-0.006 -34.394091,-0.11443 -34.752285,-0.32297 z m 65.103196,-9.4023 c 1.18589,-4.90964 3.2833,-7.77272 8.26464,-11.28166 7.58481,-5.34289 14.83163,-12.82609 18.97232,-19.59118 1.85528,-3.03115 4.13082,-7.64729 5.40064,-10.95567 1.33607,-3.48095 3.35195,-11.29964 3.63839,-14.11159 l 0.21077,-2.06909 H 104.96909 38.421235 l 0.151086,0.68971 c 0.08313,0.37933 0.378857,2.00012 0.657251,3.60176 1.762536,10.14 6.200142,20.07047 12.944617,28.96735 2.389407,3.15197 9.509609,10.02358 13.233615,12.77158 1.938809,1.43068 4.191558,3.28018 5.006097,4.10999 1.786823,1.82033 3.402842,5.05073 3.937458,7.87096 l 0.392237,2.0691 29.893684,-0.003 29.89368,-0.003 z M 93.932835,212.63948 c -2.735964,-1.36339 -3.439063,-4.3156 -2.142293,-8.99518 2.426978,-8.75802 9.369428,-13.56732 16.552858,-11.46677 5.83901,1.70742 11.28563,9.22156 11.31207,15.60612 0.008,1.77727 -0.66407,3.07485 -2.18763,4.2277 -1.86852,1.41388 -3.24639,1.57414 -8.25184,0.95972 -3.97822,-0.48834 -4.83926,-0.5037 -7.81658,-0.13948 -5.345083,0.65389 -5.791993,0.64238 -7.466585,-0.19211 z M 86.553782,197.2618 c -2.047099,-1.07243 -4.59321,-5.78056 -4.59321,-8.49348 0,-1.15286 1.092708,-2.89173 2.154927,-3.42922 2.894936,-1.46486 7.070954,1.33753 8.42953,5.65678 0.91301,2.90269 0.186093,5.16193 -2.023327,6.28855 -1.348602,0.68766 -2.625976,0.68038 -3.96792,-0.0227 z m 32.957068,0.12682 c -2.87112,-1.27608 -3.58342,-4.76309 -1.71386,-8.39023 1.13969,-2.21115 3.73757,-4.05143 5.71924,-4.05143 1.24035,0 2.70545,0.82824 3.32732,1.88096 1.52965,2.5895 -1.37579,9.21365 -4.64069,10.58048 -1.20382,0.50396 -1.51883,0.50165 -2.69201,-0.0198 z m -23.034372,-8.14784 c -2.598039,-1.04835 -4.502979,-7.49907 -3.367733,-11.40418 0.880131,-3.02751 3.718948,-4.60802 6.179506,-3.44042 4.292359,2.03686 5.184989,12.16671 1.281829,14.54658 -1.02661,0.62595 -2.936383,0.76498 -4.093602,0.29802 z m 12.727562,-0.13984 c -0.44235,-0.25004 -1.12406,-1.11456 -1.5149,-1.92114 -0.60061,-1.23951 -0.71293,-1.96475 -0.7256,-4.68511 -0.0165,-3.53873 0.56197,-5.41744 2.19218,-7.1198 2.39329,-2.49919 6.23358,-1.42638 7.16444,2.00147 0.50837,1.87206 0.17664,6.13568 -0.64036,8.23025 -0.9503,2.43636 -2.31958,3.68677 -4.19811,3.83373 -0.93115,0.0729 -1.76935,-0.052 -2.27765,-0.3394 z M 78.586156,143.86813 c -1.685749,-0.97322 -14.908009,-11.80574 -15.484944,-12.68625 -1.177374,-1.79692 -0.776178,-4.13439 0.854339,-4.97756 1.632781,-0.84435 2.57759,-0.37947 7.004772,3.44651 4.628095,3.99962 9.547154,8.03291 10.791187,8.84802 l 0.832071,0.54519 -0.958942,-2.72067 c -1.174424,-3.33207 -1.767851,-4.52361 -3.721287,-7.47193 -5.00352,-7.55187 -14.604338,-13.40576 -26.20428,-15.97752 -1.723333,-0.38207 -3.225765,-0.60226 -3.338722,-0.48928 -0.602051,0.60203 2.162884,9.70021 4.168428,13.71655 5.31604,10.64592 12.172701,15.9243 23.059216,17.75138 3.120649,0.52373 3.885284,0.5277 2.998162,0.0155 z m 53.853154,-2.31168 c 5.52765,-1.42212 10.32416,-4.24727 14.37399,-8.46625 2.91659,-3.0384 4.25116,-4.98201 6.08289,-8.85885 3.11619,-6.59536 4.24081,-11.97695 4.28732,-20.5156 l 0.0308,-5.670857 -0.91959,0.10677 c -1.86584,0.21662 -8.07477,2.469617 -11.3448,4.116577 -6.42142,3.23421 -11.49175,7.55621 -15.11076,12.88058 -4.77019,7.01798 -6.80325,13.1503 -6.80325,20.52064 v 3.0593 l 3.99321,-5.58577 c 6.33317,-8.85896 10.407,-13.98683 11.87704,-14.95004 0.45527,-0.29829 1.39518,-0.52995 2.15022,-0.52995 1.12774,0 1.48384,0.15944 2.23584,1.00107 1.77042,1.98144 0.96859,4.05085 -3.45706,8.92224 -1.26132,1.38835 -9.905,11.97692 -11.68822,14.31814 l -0.55982,0.73502 1.01961,-0.17966 c 0.5608,-0.0988 2.28543,-0.50532 3.83253,-0.90334 z m -32.69983,-20.1856 c 0,-0.78634 -2.715925,-9.54819 -4.392741,-14.17143 -3.402296,-9.380627 -3.66398,-11.678417 -1.459779,-12.818237 1.786058,-0.92361 3.735863,-0.53598 4.636823,0.92179 0.718935,1.16327 6.945487,19.516447 7.234607,21.324487 0.10457,0.65383 0.28653,1.18879 0.40439,1.18879 0.28161,0 1.72234,-4.21578 2.30465,-6.74372 0.59562,-2.58568 0.59389,-7.63796 -0.003,-10.47821 -1.85427,-8.814837 -9.752741,-17.795047 -20.267263,-23.042967 l -2.80669,-1.40085 -0.481029,1.2022 c -2.502595,6.25459 -2.998837,17.09741 -1.111024,24.275557 1.981334,7.53377 6.689912,14.19436 13.160774,18.61678 2.429388,1.66033 2.780835,1.80262 2.780835,1.12581 z"
       id="path1" /></g></svg>
