<?xml version="1.0" encoding="UTF-8" standalone="no"?>
<!-- Created with Inkscape (http://www.inkscape.org/) -->

<svg
   width="104.01441mm"
   height="122.10798mm"
   viewBox="0 0 104.01441 122.10798"
   version="1.1"
   id="svg1"
   xml:space="preserve"
   xmlns="http://www.w3.org/2000/svg"
   xmlns:svg="http://www.w3.org/2000/svg"><defs
     id="defs1" /><g
     id="layer1"
     transform="translate(-47.875058,-79.764997)"><path
       style="fill:#000000"
       d="m 55.076797,201.27165 c -4.537774,-1.54688 -7.197944,-5.378 -7.201732,-10.37178 -0.0016,-2.09108 0.291558,-3.60638 2.405714,-12.43541 1.324137,-5.5298 3.356594,-14.04276 4.516572,-18.91771 1.159977,-4.87495 2.365763,-9.54643 2.679523,-10.38107 1.696409,-4.51266 5.992248,-8.58752 10.854066,-10.29573 1.504395,-0.52858 2.399118,-0.62195 7.14375,-0.7455 4.108067,-0.10698 5.417539,-0.22148 5.3975,-0.47197 -0.01455,-0.18191 -0.04432,-2.046 -0.06615,-4.14244 l -0.03969,-3.8117 -6.151563,-0.11176 c -5.770766,-0.10485 -6.298358,-0.15646 -8.522962,-0.83366 -7.373796,-2.24472 -13.16581,-8.16026 -15.184415,-15.50826 -0.860254,-3.13144 -0.94866,-4.47454 -0.364379,-5.5358 1.015168,-1.84391 1.193028,-1.87253 11.637252,-1.87253 h 9.335732 l -0.203479,-0.72761 c -0.111913,-0.40018 -0.189733,-2.15635 -0.172933,-3.9026 0.02591,-2.693598 0.138437,-3.495934 0.742127,-5.291666 2.208257,-6.568661 7.697277,-11.602263 15.617577,-14.321804 6.43588,-2.209846 15.565933,-2.436784 22.768083,-0.565927 8.56096,2.223826 15.22929,7.895828 17.50286,14.887731 0.77744,2.390832 1.11997,6.867556 0.67313,8.797396 l -0.26037,1.12448 h 9.1085 c 9.85269,0 10.18127,0.0413 11.47275,1.44388 0.96671,1.04982 0.88584,3.42645 -0.2286,6.71867 -2.02749,5.98948 -6.08477,10.6978 -11.56019,13.41518 -3.608,1.7906 -6.10179,2.22698 -12.75131,2.23129 l -5.35781,0.003 v 4.23333 4.23334 h 4.8392 c 5.47239,0 6.898,0.2499 9.84517,1.72584 3.63805,1.82192 6.43834,4.67053 8.14311,8.2836 0.74921,1.58785 2.18024,7.11806 6.10499,23.59264 0.81469,3.41974 2.0295,8.4799 2.69958,11.24479 1.52773,6.30375 1.72401,8.6302 0.9446,11.19623 -1.14317,3.76366 -4.25897,6.59075 -8.18186,7.42376 -1.00636,0.21369 -13.40282,0.29579 -43.920834,0.29089 l -42.518748,-0.007 z m 88.020923,-6.96036 c 1.20341,-0.57106 1.96239,-1.85911 1.96239,-3.33035 0,-0.64867 -1.37271,-6.8854 -3.05046,-13.8594 -1.67775,-6.974 -3.64833,-15.23984 -4.37907,-18.36854 -1.58055,-6.76721 -2.46357,-8.85539 -4.53049,-10.71373 -1.54859,-1.39231 -2.41562,-1.89082 -4.31186,-2.47916 -1.15279,-0.35768 -4.62339,-0.41592 -26.9875,-0.45292 -14.115519,-0.0233 -26.855207,0.0405 -28.310415,0.14197 -3.348296,0.2334 -5.29603,1.04411 -7.220726,3.00551 -1.927107,1.96386 -2.473935,3.30394 -4.014014,9.83687 -0.754715,3.20146 -1.832154,7.72583 -2.394309,10.05417 -0.562155,2.32833 -1.630531,6.8527 -2.37417,10.05416 -0.743638,3.20146 -1.703614,7.26965 -2.133279,9.04042 -0.429666,1.77077 -0.780765,3.5567 -0.780221,3.96875 0.0013,1.00899 0.862439,2.35791 1.914821,2.99955 0.850968,0.51885 1.420549,0.52578 43.287954,0.52675 38.414469,9e-4 42.510329,-0.0392 43.321349,-0.42405 z M 75.798306,184.12162 c -0.758853,-0.37562 -1.359601,-0.94919 -1.8238,-1.74129 -0.661788,-1.12926 -0.690519,-1.34008 -0.653784,-4.79748 0.05724,-5.38773 1.014555,-9.39434 3.222786,-13.48826 3.547934,-6.57764 10.21539,-11.58912 17.579937,-13.21367 2.919963,-0.64412 8.717175,-0.58276 11.513745,0.12186 9.84904,2.48156 17.3809,9.83567 19.86057,19.39188 0.62985,2.42733 0.99538,8.20435 0.66044,10.43789 -0.21369,1.42501 -1.39061,2.93872 -2.71515,3.49215 -0.69613,0.29086 -5.10888,0.35743 -23.684341,0.35726 -22.716476,-2.1e-4 -22.834379,-0.003 -23.960403,-0.56034 z m 18.461801,-5.52658 c 0,-1.24203 3.489741,-18.68856 3.847347,-19.23434 0.768948,-1.17356 2.866226,-1.04646 3.480126,0.21091 0.17381,0.35599 1.12048,4.90134 2.1037,10.10078 l 1.78769,9.45352 h 7.61042 c 6.97887,0 7.63064,-0.0384 7.85396,-0.46302 0.31542,-0.59971 -0.0708,-4.99033 -0.62255,-7.0776 -2.53417,-9.58644 -11.72296,-16.22598 -21.677048,-15.66318 -8.130314,0.45969 -14.640722,4.87731 -18.044298,12.24391 -1.652622,3.57688 -2.611433,9.44605 -1.71893,10.52209 0.322259,0.38853 1.208125,0.4378 7.871355,0.4378 7.339887,0 7.508228,-0.0119 7.508228,-0.53087 z m 17.727083,-44.71288 v -4.23333 H 99.816357 87.645524 v 4.23333 4.23334 h 12.170833 12.170833 z m 18.85349,-11.76513 c 3.90348,-0.82719 8.12134,-4.00102 9.94491,-7.4833 l 0.86596,-1.65365 H 99.831872 c -23.000825,0 -41.818192,0.0893 -41.816371,0.19844 0.01038,0.62237 1.999087,3.53898 3.315174,4.862 1.742804,1.75199 4.784918,3.46776 7.173935,4.04615 2.317951,0.56119 59.69921,0.58913 62.33607,0.0304 z m -19.03199,-9.86447 c -6.42834,-0.0394 -17.0249,-0.0395 -23.547921,-3e-5 -6.52302,0.0394 -1.263475,0.0717 11.68788,0.0717 12.951351,1e-5 18.288371,-0.0322 11.860041,-0.0717 z m 18.10402,0.002 c -1.12779,-0.0496 -2.97325,-0.0496 -4.10104,0 -1.12779,0.0496 -0.20505,0.0902 2.05052,0.0902 2.25557,0 3.17831,-0.0406 2.05052,-0.0902 z m -8.3027,-7.01323 c 0.31448,-1.17349 0.16171,-4.88194 -0.25962,-6.301982 -1.41866,-4.781473 -5.46092,-8.600933 -11.14505,-10.530772 -5.05315,-1.715611 -13.417292,-1.835836 -19.517108,-0.280537 -6.417797,1.636376 -11.196611,5.907026 -12.420477,11.099722 -0.420754,1.785199 -0.530564,4.361489 -0.24645,5.782059 l 0.165364,0.82682 h 21.631902 21.631899 z"
       id="path7" /></g></svg>
